<svg width="156" height="74" viewBox="0 0 156 74" fill="none" xmlns="http://www.w3.org/2000/svg">
<g clip-path="url(#clip0_160_1883)">
<path d="M20.0871 39.9828C21.79 39.9828 23.1782 38.6114 23.1782 36.9141C23.1782 35.216 21.79 33.8524 20.0871 33.8524C18.3843 33.8524 17 35.216 17 36.9141C17 38.6114 18.3843 39.9828 20.0871 39.9828Z" fill="#2350A9"/>
<path d="M20.0871 56.83C21.79 56.83 23.1782 55.4586 23.1782 53.7667C23.1782 52.0749 21.79 50.6957 20.0871 50.6957C18.3843 50.6957 17 52.0749 17 53.7667C17 55.4586 18.3843 56.83 20.0871 56.83Z" fill="#2350A9"/>
<path d="M37.0486 39.9828C38.7554 39.9828 40.1357 38.6114 40.1357 36.9141C40.1357 35.216 38.7554 33.8524 37.0486 33.8524C35.3418 33.8524 33.9614 35.216 33.9614 36.9141C33.9614 38.6114 35.3418 39.9828 37.0486 39.9828Z" fill="#2350A9"/>
<path d="M37.0486 56.83C38.7554 56.83 40.1357 55.4586 40.1357 53.7667C40.1357 52.0749 38.7554 50.6957 37.0486 50.6957C35.3418 50.6957 33.9614 52.0749 33.9614 53.7667C33.9614 55.4586 35.3418 56.83 37.0486 56.83Z" fill="#2350A9"/>
<path d="M54.0026 39.9828C55.7133 39.9828 57.0976 38.6114 57.0976 36.9141C57.0976 35.216 55.7133 33.8524 54.0026 33.8524C52.2998 33.8524 50.9233 35.216 50.9233 36.9141C50.9233 38.6114 52.2998 39.9828 54.0026 39.9828Z" fill="#2350A9"/>
<path d="M20.0871 23.131C21.79 23.131 23.1782 21.758 23.1782 20.0638C23.1782 18.368 21.79 17.0004 20.0871 17.0004C18.3843 17.0004 17 18.368 17 20.0638C17 21.758 18.3843 23.131 20.0871 23.131Z" fill="#2350A9"/>
<path d="M37.0486 23.131C38.7554 23.131 40.1357 21.758 40.1357 20.0638C40.1357 18.368 38.7554 17.0004 37.0486 17.0004C35.3418 17.0004 33.9614 18.368 33.9614 20.0638C33.9614 21.758 35.3418 23.131 37.0486 23.131Z" fill="#2350A9"/>
<path d="M54.0026 23.131C55.7133 23.131 57.0976 21.758 57.0976 20.0638C57.0976 18.368 55.7133 17.0004 54.0026 17.0004C52.2998 17.0004 50.9233 18.368 50.9233 20.0638C50.9233 21.758 52.2998 23.131 54.0026 23.131Z" fill="#2350A9"/>
<path d="M54.0026 56.83C55.7133 56.83 57.0976 55.4586 57.0976 53.7667C57.0976 52.0749 55.7133 50.6957 54.0026 50.6957C52.2998 50.6957 50.9233 52.0749 50.9233 53.7667C50.9233 55.4586 52.2998 56.83 54.0026 56.83Z" fill="#2350A9"/>
<path d="M70.9679 39.9828C72.6707 39.9828 74.055 38.6114 74.055 36.9141C74.055 35.216 72.6707 33.8524 70.9679 33.8524C69.2612 33.8524 67.8848 35.216 67.8848 36.9141C67.8848 38.6114 69.2612 39.9828 70.9679 39.9828Z" fill="#2350A9"/>
<path d="M70.9679 56.83C72.6707 56.83 74.055 55.4586 74.055 53.7667C74.055 52.0749 72.6707 50.6957 70.9679 50.6957C69.2612 50.6957 67.8848 52.0749 67.8848 53.7667C67.8848 55.4586 69.2612 56.83 70.9679 56.83Z" fill="#2350A9"/>
<path d="M70.9679 23.131C72.6707 23.131 74.055 21.758 74.055 20.0598C74.055 18.372 72.6707 16.9966 70.9679 16.9966C69.2612 16.9966 67.8848 18.372 67.8848 20.0598C67.8848 21.758 69.2612 23.131 70.9679 23.131Z" fill="#2350A9"/>
<path d="M123.532 40.311C123.371 40.311 123.304 40.3814 123.304 40.5377V56.4549C123.304 56.6112 123.371 56.6815 123.532 56.6815H125.381C125.518 56.6815 125.585 56.6112 125.585 56.4549V40.5377C125.585 40.3814 125.518 40.311 125.381 40.311H123.532ZM108.266 42.3975C108.266 42.2842 108.313 42.2178 108.427 42.2178H115.065C115.226 42.2178 115.317 42.124 115.317 41.9677V40.5377C115.317 40.3814 115.226 40.311 115.065 40.311H106.213C106.052 40.311 105.985 40.3814 105.985 40.5377V56.4549C105.985 56.6112 106.052 56.6815 106.213 56.6815H115.065C115.226 56.6815 115.317 56.6112 115.317 56.4549V55.0014C115.317 54.8451 115.226 54.7748 115.065 54.7748H108.427C108.313 54.7748 108.266 54.7084 108.266 54.5951V49.4493H113.606C113.763 49.4493 113.858 49.3789 113.858 49.2227V47.7691C113.858 47.6129 113.763 47.5425 113.606 47.5425H108.266V42.3975ZM91.7209 42.3975C91.7209 42.2842 91.7915 42.2178 91.9057 42.2178H98.2922C98.4535 42.2178 98.5439 42.124 98.5439 41.9677V40.5377C98.5439 40.3814 98.4535 40.311 98.2922 40.311H89.6679C89.5068 40.311 89.4399 40.3814 89.4399 40.5377V56.4549C89.4399 56.6112 89.5068 56.6815 89.6679 56.6815H91.5163C91.654 56.6815 91.7209 56.6112 91.7209 56.4549V49.4493H96.8332C96.9945 49.4493 97.0849 49.3789 97.0849 49.2227V47.7691C97.0849 47.6129 96.9945 47.5425 96.8332 47.5425H91.7209V42.3975Z" fill="#231F20"/>
<path d="M139.003 17.5341C139.003 17.3287 138.913 17.2389 138.752 17.2389H135.672C135.492 17.2389 135.397 17.3287 135.397 17.5341V28.4627C135.397 30.0725 134.508 30.8657 132.707 30.8657C130.926 30.8657 130.037 30.0725 130.037 28.4627V17.5341C130.037 17.3287 129.947 17.2389 129.785 17.2389H126.725C126.521 17.2389 126.431 17.3287 126.431 17.5341V28.5541C126.431 31.7503 128.232 33.7664 132.707 33.7664C137.202 33.7664 139.003 31.7503 139.003 28.5541V17.5341ZM114.176 33.6102C114.381 33.6102 114.471 33.5188 114.471 33.3131V20.3216C114.471 20.2082 114.518 20.1418 114.633 20.1418H118.51C118.695 20.1418 118.785 20.052 118.785 19.8473V17.5341C118.785 17.3287 118.695 17.2389 118.51 17.2389H106.873C106.669 17.2389 106.578 17.3287 106.578 17.5341V19.8473C106.578 20.052 106.669 20.1418 106.873 20.1418H110.684C110.798 20.1418 110.869 20.2082 110.869 20.3216V33.3131C110.869 33.5188 110.959 33.6102 111.117 33.6102H114.176ZM88.9127 32.8154C90.4662 33.6102 91.9489 33.7664 93.8445 33.7664C97.3563 33.7664 99.6177 32.0222 99.6177 28.8472C99.6177 26.5342 98.5203 25.1299 95.6691 23.9279C93.2269 22.9511 92.8848 22.5214 92.8848 21.615C92.8848 20.6849 93.5259 20.052 94.9849 20.052C96.0585 20.052 96.9709 20.2318 97.8597 20.5951C98.0642 20.6849 98.2018 20.5951 98.2686 20.4349L99.3422 18.3507C99.4131 18.1921 99.4131 18.0321 99.2047 17.9657C97.5411 17.2389 96.5815 17.081 94.3674 17.081C90.9695 17.081 88.96 19.0517 88.96 21.7048C88.96 24.1312 90.1909 25.6276 93.0461 26.8311C95.2602 27.8039 95.7164 28.2806 95.7164 29.2105C95.7164 30.2069 94.8943 30.7969 93.5259 30.7969C91.9489 30.7969 91.1506 30.4804 90.1909 30.0507C90.0101 29.9803 89.8724 30.0507 89.8055 30.2069L88.779 32.5435C88.7319 32.6333 88.779 32.7232 88.9127 32.8154Z" fill="#231F20"/>
</g>
<defs>
<clipPath id="clip0_160_1883">
<rect width="122" height="39.83" fill="white" transform="translate(17 17)"/>
</clipPath>
</defs>
</svg>
